PathFileType	4	(X/Y/Z)	s09c0303.trc
DataRate	CameraRate	NumFrames	NumMarkers	Units	OrigDataRate	OrigDataStartFrame	OrigNumFrames
200	200	5	50	mm	200	1750	2000
Frame#	Time	racr			lacr			c7			jug			rlel			rdr			llel			ldr			s2			lic			ric			lasi			rasi			rpsi			lpsi			rgt			lgt			rth1			rth2			rth3			rth4			rlfc			rmfc			rsh1			rsh2			rsh3			rsh4			rlmal			rmmal			rcal			rtoe			rmt5			lth1			lth2			lth4			lth3			llfc			lmfc			llmal			lmmal			lcal			lmt5			lsh1			lsh2			lsh3			lsh4			ltoe			SBIKE			LBIKE			RBIKE			
		X1	Y1	Z1	X2	Y2	Z2	X3	Y3	Z3	X4	Y4	Z4	X5	Y5	Z5	X6	Y6	Z6	X7	Y7	Z7	X8	Y8	Z8	X9	Y9	Z9	X10	Y10	Z10	X11	Y11	Z11	X12	Y12	Z12	X13	Y13	Z13	X14	Y14	Z14	X15	Y15	Z15	X16	Y16	Z16	X17	Y17	Z17	X18	Y18	Z18	X19	Y19	Z19	X20	Y20	Z20	X21	Y21	Z21	X22	Y22	Z22	X23	Y23	Z23	X24	Y24	Z24	X25	Y25	Z25	X26	Y26	Z26	X27	Y27	Z27	X28	Y28	Z28	X29	Y29	Z29	X30	Y30	Z30	X31	Y31	Z31	X32	Y32	Z32	X33	Y33	Z33	X34	Y34	Z34	X35	Y35	Z35	X36	Y36	Z36	X37	Y37	Z37	X38	Y38	Z38	X39	Y39	Z39	X40	Y40	Z40	X41	Y41	Z41	X42	Y42	Z42	X43	Y43	Z43	X44	Y44	Z44	X45	Y45	Z45	X46	Y46	Z46	X47	Y47	Z47	X48	Y48	Z48	X49	Y49	Z49	X50	Y50	Z50	
1750	8.7500	802.323080	1171.142338	-76.538972	759.705033	1204.416707	-446.145916	802.691083	1266.832296	-260.229390	782.111330	1133.160849	-270.426377	600.025079	1054.856963	43.592621	722.780443	881.172817	-48.132607	556.506845	1035.286524	-544.998481	708.806913	877.814177	-443.923255	304.755970	1176.330231	-233.199247	438.521177	1148.127425	-381.512531	434.665535	1119.431195	-81.459554	458.116393	1085.386645	-363.086428	463.925407	1058.710512	-104.937262	340.025401	1190.809808	-161.361188	342.417052	1208.529914	-278.285850	361.300285	984.196969	-54.198374	390.774045	1038.983630	-430.776270	395.915072	852.472681	-60.823221	435.773388	774.517692	-70.360897	425.163556	687.157856	-84.361357	466.728145	780.750285	-89.363731	435.972962	597.514596	-111.790433	409.407357	578.173849	-204.033090	378.311457	512.297956	-73.506056	371.426481	423.185347	-84.338728	322.300732	351.079739	-80.967534	395.790125	417.353880	-115.297631	282.318434	252.976407	-75.880919	285.226154	264.513364	-152.346780	202.473881	244.041564	-110.055473	448.129962	145.220483	-133.094536	368.252727	155.904895	-62.614934	480.671371	933.010905	-432.026165	551.630955	888.691447	-419.286094	575.520075	910.746677	-397.772421	594.353828	809.636868	-420.338732	619.463884	716.467717	-403.718147	617.722327	697.708669	-303.398842	274.900998	598.305864	-417.550654	291.674467	590.244964	-343.472691	207.461675	636.364922	-375.275954	245.982641	468.654225	-432.558227	528.271042	681.298715	-427.002805	455.497165	634.515496	-416.936725	366.634530	629.521357	-418.432175	465.115593	611.754964	-386.160084	318.497776	402.639453	-361.316256	-63.936873	850.980090	-239.923533	21.247370	84.272184	-442.240869	21.199185	83.997959	-43.816101	
1751	8.7550	804.895432	1170.681985	-81.785204	757.065130	1202.727681	-450.758246	801.991588	1265.522488	-265.462587	781.760627	1132.101548	-274.753951	603.656767	1056.918639	42.209013	723.459048	881.210459	-48.812269	553.214060	1032.169532	-546.165260	707.960899	877.660503	-444.342090	303.783594	1174.376733	-228.066214	436.421958	1148.638979	-380.682355	437.922785	1116.126931	-80.688217	456.846185	1085.428352	-363.502227	465.633797	1055.879206	-105.887613	340.410881	1187.899915	-164.295338	341.872407	1207.172346	-274.555924	363.572988	981.780909	-52.471139	388.535622	1040.540234	-428.896512	394.903650	850.557450	-60.203783	432.418111	771.560174	-70.135809	419.804997	684.569420	-84.260009	463.373591	777.156207	-90.145831	428.596969	594.402128	-112.580110	400.288516	576.050380	-204.404914	370.861996	509.804645	-73.628366	364.176979	420.936131	-84.205266	314.839244	348.631651	-80.867083	387.692462	414.895356	-116.319015	274.265779	250.864036	-75.814446	277.121485	262.304770	-151.987703	194.715435	243.361552	-110.000908	438.237314	139.666469	-133.068917	358.600054	151.907786	-62.568505	481.912183	935.997881	-431.711487	553.735178	893.538323	-419.480030	575.813669	915.568033	-398.568118	598.776514	815.624898	-420.515964	626.859114	722.897504	-403.926825	626.149404	703.258232	-304.993429	283.664423	602.026908	-417.436284	300.026237	594.282786	-343.730424	214.445360	639.366867	-375.204713	256.378586	472.459499	-432.692714	536.460008	687.159313	-426.627822	463.881861	640.140207	-416.705922	375.016452	634.715247	-418.315279	473.589522	617.279663	-386.093536	328.964215	406.674096	-359.880460	-63.941960	850.971228	-239.953513	21.238756	84.283867	-442.239682	21.176531	84.009787	-43.849491	
1752	8.7600	807.427095	1169.979015	-86.957667	754.392255	1200.851316	-455.454518	801.376996	1264.111269	-270.484215	781.329607	1131.030384	-279.090911	607.137660	1059.034155	40.678455	724.137767	881.340742	-49.372120	549.501911	1028.893900	-546.263708	707.296556	877.509405	-444.705744	304.760450	1173.007652	-224.750639	434.289464	1149.202695	-379.886444	440.885895	1112.852945	-80.164222	455.632623	1085.436715	-363.875828	467.385700	1053.087693	-106.988154	343.239920	1184.795658	-163.002324	341.378104	1206.235015	-270.696902	366.102903	979.631821	-51.141332	386.306601	1041.796573	-426.805900	393.907478	848.882700	-59.732627	429.741084	768.682639	-70.124058	414.783685	682.250646	-83.830821	460.105894	773.821819	-90.884053	421.509329	591.969835	-112.497607	391.745531	574.388303	-204.491699	363.703244	507.869909	-73.533976	356.789884	418.902455	-84.036978	307.293218	346.742424	-80.545048	380.015325	413.031094	-116.470246	266.181608	249.617370	-75.493578	269.243239	260.715098	-151.655709	186.799282	243.670783	-109.771805	428.206155	134.792284	-133.059964	348.780174	148.611379	-62.520436	482.940912	938.922836	-431.151689	556.042309	898.039277	-418.965483	577.427775	920.873876	-398.644619	602.726392	821.600248	-420.961316	633.968513	729.523431	-404.022070	634.182731	709.380303	-305.915870	292.143574	605.052401	-417.369353	307.986224	598.019584	-343.663116	221.267836	641.797907	-375.400019	266.872968	475.547234	-433.018048	544.602861	693.065985	-425.981676	472.128457	645.589129	-416.677434	383.336360	639.584127	-418.247213	481.835680	622.627420	-386.152112	340.269411	411.081752	-359.929239	-63.991906	850.902650	-239.917866	21.215323	84.246748	-442.243785	21.162618	83.983577	-43.841389	
1753	8.7650	809.583545	1169.790069	-92.185496	751.738855	1198.714803	-460.157527	800.638280	1262.795781	-275.544080	780.854986	1129.866565	-283.279597	610.268290	1061.015178	39.010336	724.741880	881.445426	-49.892091	545.862986	1025.719466	-546.112361	706.542310	876.062350	-443.771930	305.095595	1171.524136	-220.859309	432.146350	1149.808272	-379.144231	444.035129	1109.921321	-79.908349	454.491353	1085.404094	-364.186605	469.121988	1050.481313	-108.108520	344.222310	1183.509264	-159.219677	340.921124	1205.435471	-267.000489	368.835834	977.889745	-49.998745	383.842248	1043.844748	-425.776047	393.109085	847.443590	-59.143635	426.963255	766.572463	-69.678313	410.213346	680.329380	-83.108374	457.237899	770.944174	-91.216626	414.759681	590.205617	-112.271948	383.831463	572.844561	-204.383685	356.873421	506.527270	-73.192526	349.554812	417.695132	-83.682531	299.814593	345.710758	-80.041815	372.617918	411.688542	-116.255056	257.819154	248.737072	-75.239560	261.135101	259.627346	-151.100479	179.043751	244.240908	-109.505584	417.991859	130.380829	-133.048234	338.901064	145.840383	-62.426942	483.347145	941.998925	-430.861443	557.085012	903.581967	-419.378824	578.628527	926.250465	-398.568999	606.464647	827.834938	-421.057018	640.678630	736.444894	-404.240029	641.770025	715.607142	-306.750043	300.203186	607.341619	-417.380629	314.754403	600.739639	-343.902893	227.863402	643.193206	-375.410392	277.548864	477.984327	-433.333904	552.235257	699.154309	-425.729910	480.215968	650.929865	-416.761747	391.473154	644.063867	-418.270491	490.097141	627.866956	-386.562039	351.552287	414.935171	-359.956532	-64.056363	850.890293	-239.979442	21.217721	84.200997	-442.261525	21.161886	83.973139	-43.844759	
1754	8.7700	811.730864	1169.580547	-97.241915	748.868920	1197.102460	-465.758032	800.157965	1261.559673	-280.241199	780.360858	1128.747215	-287.404101	613.227637	1062.897286	37.375990	725.320859	881.568831	-50.543553	542.076792	1022.567230	-545.868805	706.046669	875.864308	-444.463041	305.228622	1170.576233	-217.130919	430.019972	1150.447723	-378.476890	447.606407	1107.430078	-79.522409	453.438048	1085.323093	-364.413839	470.945438	1048.257448	-109.399886	345.694477	1182.197211	-156.195101	340.411876	1205.156252	-263.428243	371.590986	976.388963	-48.971669	381.414345	1045.097571	-424.224145	392.517776	846.081790	-58.488659	424.893040	765.050399	-69.241947	406.098703	678.925765	-82.131879	454.612971	768.457776	-91.594233	408.537796	588.860597	-111.818577	374.289951	572.909094	-205.348051	350.388120	505.903131	-72.653521	342.665916	417.018783	-83.141459	292.449557	345.279654	-79.436244	365.527059	410.913879	-115.770842	249.669190	248.452817	-74.846524	253.354563	259.337153	-150.564977	171.177456	245.842341	-108.997519	407.554110	126.687064	-133.086361	328.935086	143.841619	-62.308765	483.572115	945.072455	-430.319675	558.832534	907.992703	-419.117028	579.563560	931.508384	-398.650160	609.457941	833.854691	-421.639921	647.134148	743.390864	-404.420473	648.419489	722.657887	-305.593227	308.249624	608.877065	-417.461845	323.697474	602.831842	-343.711924	234.765669	643.813806	-375.662073	288.399152	479.786110	-433.622930	559.538667	704.927177	-425.463947	487.924013	656.262409	-417.150882	399.303754	648.032472	-418.379728	498.185645	632.676845	-387.105167	363.579825	418.406835	-359.613633	-64.131640	850.851174	-240.076969	21.232514	84.160911	-442.274388	21.158971	83.973226	-43.840599	
